#!OML:ASF F:\VICON\USERDATA\INSTALL\rory3\rory3.ASF
:FULLY-SPECIFIED
:DEGREES
85
root -0.15088988765155897 17.85741745376648 34.3207246647086 -4.095237494788295 -0.8167498861525733 -4.827048387221528
lfemur -11.207754148016916 -0.23548295392726049 -14.696329025318775
ltibia 54.64764444612225
lfoot -4.657462738630589 -3.8671825341199604
ltoes -5.220778295995994
rfemur -15.168391491089755 5.843277297513523 27.066392439477198
rtibia 35.8585855814518
rfoot -6.752108220120338 -4.366191331052496
rtoes 4.284898375289934
lowerback 9.758839177678196 0.23907112005910136 1.9345481754877332
upperback 0.4750743402522072 0.9007989924849868 2.298824062810009
thorax -4.820734398797073 0.43550157480704355 1.0962940874478024
lowerneck -15.975669030029032 -2.684055646814876 -2.070097676676261
upperneck 20.89701619597558 -3.2347633029617064 0.9809054959295548
head 9.258443756325242 -1.7553087173771174 0.10164651160317173
lclavicle -1.3879679699872354e-15 -1.8442003054902816e-15
lhumerus -31.48039837968236 1.9087179856652183 83.14175965146929
lradius 21.07396679422327
lwrist 1.3769391785383371
lhand -27.37234449001671 23.737153879633937
lfingers 7.125019999999999
lthumb -0.7975579455710425 53.84565133503622
rclavicle -1.3889733826873489e-15 -1.84513455421548e-15
rhumerus -31.908989445885457 -25.861401797539244 -74.85984836361968
rradius 22.996323572252766
rwrist 7.4377859736530585
rhand -18.336587537429267 22.781101242391728
rfingers 7.125019999999999
rthumb 7.930651353117302 -7.0640450589308506
86
root -0.17162186780785815 17.858923234156205 34.35592064339294 -4.026402172866689 -1.3035856857084738 -5.278234686948275
lfemur -15.860818497711605 1.2869636182243118 -14.072638472554853
ltibia 55.1336298193083
lfoot -4.301471335324276 -3.704334997360899
ltoes -4.98733763947874
rfemur -12.919012394105389 6.075978754111009 27.879021370900787
rtibia 36.16791318730569
rfoot -6.721088919172322 -4.212232568827308
rtoes 4.555733878104542
lowerback 9.813533367509008 0.4497524553668124 2.396864705368559
upperback 0.44487937201824884 1.277114740012157 2.228829256874285
thorax -4.866825544949525 0.5880581327908261 0.7408297232818091
lowerneck -15.93519399065927 -2.6757904288461463 -2.02016865629772
upperneck 20.847793934352403 -3.2550400237062016 0.9390605068812151
head 9.252270934911271 -1.7623251500164385 0.09703128999832986
lclavicle -1.3879679699872356e-15 -1.8442003054902816e-15
lhumerus -32.33550261382695 2.8202976569269973 83.01083074660784
lradius 21.023877239678786
lwrist 1.0376120192701217
lhand -27.32656897004019 23.836215833586433
lfingers 7.125019999999999
lthumb -0.7166322157534445 53.9743412481316
rclavicle -1.3889733826873489e-15 -1.84513455421548e-15
rhumerus -30.287501212224313 -23.342975304409347 -76.67261080212107
rradius 22.873990892628637
rwrist 6.616854702004104
rhand -18.367717645878255 22.741616937610065
rfingers 7.125019999999999
rthumb 7.929341351883944 -7.07084515263088
87
root -0.18159913704238606 17.843181897547876 34.44968922047039 -3.817135449154799 -1.8559578008841133 -5.76442309393103
lfemur -20.305710579441424 2.5010389337124668 -13.558502497607407
ltibia 53.89040143606452
lfoot -3.8937863215357016 -3.276106563010977
ltoes -5.061651283224009
rfemur -11.562112951143465 6.02781209639499 28.275187697918387
rtibia 36.76555625374638
rfoot -6.610320635156226 -4.0240509641143225
rtoes 4.5372093523540755
lowerback 9.83521954913627 0.620918745713854 2.742636922592234
upperback 0.4156278636045595 1.7277112301292383 2.199400853115689
thorax -4.908105316364944 0.73746619748233 0.35370112215393346
lowerneck -15.938253413609372 -2.684455463998245 -1.9944553364765167
upperneck 20.86851190185471 -3.240003427974952 0.9394416060684474
head 9.272599148746357 -1.7586646571002578 0.1058658026097124
lclavicle -1.387967969987236e-15 -1.844200305490282e-15
lhumerus -33.36341750231615 3.726899803810303 82.69909085588404
lradius 21.099067264774256
lwrist 0.6415103847510704
lhand -27.405895171514285 23.691457965995284
lfingers 7.125019999999999
lthumb -0.6704904360666034 54.01327560707533
rclavicle -1.388973382687349e-15 -1.84513455421548e-15
rhumerus -28.734286528280176 -20.899460397590033 -78.2323312019222
rradius 22.858564223647658
rwrist 5.842269151051755
rhand -18.318755299938204 22.797182435697493
rfingers 7.125019999999999
rthumb 7.918831388763559 -7.089718569175691
88
root -0.18087373123123573 17.81639055487709 34.70040770226986 -3.4614867996165337 -2.4297001584961304 -6.268641990419983
lfemur -24.30127135327377 3.1588216173459527 -13.065659056072327
ltibia 51.24090046853381
lfoot -4.572750137847551 -3.4141036698808818
ltoes -5.603832496969595
rfemur -10.32867302379959 5.986215654939642 28.713149026844164
rtibia 37.492665170284624
rfoot -6.46791985788483 -3.978344385559694
rtoes 4.151171459938151
lowerback 9.83674447730721 0.7849300860304871 3.093391185438429
upperback 0.3517563061035915 2.021439661083374 2.1337758586113402
thorax -4.932248552970066 0.8852433212482937 -0.0003181065415200912
lowerneck -15.947668571777694 -2.6974257926373206 -1.9683631398847623
upperneck 20.87632257503158 -3.241387689068283 0.901738031775111
head 9.29995154078586 -1.7457975909776544 0.1205904342517734
lclavicle -1.3879679699872362e-15 -1.8442003054902824e-15
lhumerus -34.154735367017906 4.922784286740752 82.31883719833675
lradius 21.18599760245169
lwrist 0.33093533564084243
lhand -27.361777312686318 23.787638194471725
lfingers 7.125019999999999
lthumb -0.6054278325371374 54.10485386422715
rclavicle -1.388973382687349e-15 -1.84513455421548e-15
rhumerus -27.209631556314754 -18.710812450372114 -79.47981659213906
rradius 22.986332763323567
rwrist 5.370461895613722
rhand -18.372093108021613 22.72328419922669
rfingers 7.125019999999999
rthumb 7.904816301045774 -7.112967014506649
